<?xml version="1.0" encoding="utf-8"?>
<!-- Generator: Adobe Illustrator 26.0.3, SVG Export Plug-In . SVG Version: 6.00 Build 0)  -->
<svg version="1.1" id="Capa_1" xmlns="http://www.w3.org/2000/svg" xmlns:xlink="http://www.w3.org/1999/xlink" x="0px" y="0px"
	 viewBox="0 0 416 416" style="enable-background:new 0 0 416 416;" xml:space="preserve">
<g>
	<path d="M317.1,92.5c-0.3-16.7-7.1-32.1-19.2-43.6c-11.4-10.8-26.3-16.5-41.8-16c-16.7,0.5-33.3,8.1-48.1,22.1
		c-14.7-14-31.3-21.6-48.1-22.1c-15.5-0.5-30.3,5.2-41.8,16c-12.2,11.4-19,26.9-19.2,43.6c-0.3,16.7,6.1,32.3,17.9,44.1l91.2,91.2
		l91.2-91.2C311,124.8,317.3,109.2,317.1,92.5z M208,197.4l-76-76c-7.6-7.7-11.8-17.8-11.6-28.6C120.6,82,125,72,132.9,64.6
		c6.9-6.5,16.2-10.2,26.2-10.2c18.5,0,28.1,9.8,41.2,23.3c1.8,1.8,3.6,3.7,5.6,5.7l2.1,2.1l2.1-2.1c2-2,3.9-3.9,5.7-5.8
		c13-13.4,22.5-23.1,41.1-23.1c10,0,19.3,3.6,26.2,10.1C291,72,295.4,82,295.6,92.8c0.2,10.8-4,20.9-11.6,28.6L208,197.4z"/>
	<path d="M384.7,48.6c-15.3,0-28,11.5-29.5,26.7l-9.7,95.8c-4.5,1.3-8.6,3.7-11.9,7l-79,73.5c-11.5,10.5-18.1,25.4-18.3,41v90.6
		h99.8v-44.2c0-5.6,2.4-11.1,6.7-15.1l59.4-59.9c7.9-7.9,12.2-18.5,12.2-29.6v-156C414.4,61.9,401.1,48.6,384.7,48.6z M314.6,338.9
		v22.7h-56.7v-69c0.1-9.6,4.2-18.7,11.3-25.2l79.3-73.9l0.1-0.1c1.5-1.5,3.6-2.2,5.8-2c1.8,0.2,3.3,0.8,4.5,2
		c1.4,1.4,2.1,3.2,2.1,5.1c0,1.8-0.7,3.6-1.8,4.8L296,260.7l14.5,15.9l63.5-57.6l0.1-0.1c5.4-5.4,8.4-12.7,8.4-20.3
		c0-7.7-3-14.9-8.4-20.3c-2.1-2.1-4.5-3.9-7.1-5.2l9.7-95.6c0.4-4.2,3.9-7.3,8.1-7.3c4.5,0,8.2,3.7,8.2,8.2v156
		c0,5.5-2.1,10.6-6,14.5l-59.1,59.7C319.4,316.3,314.6,327.4,314.6,338.9z"/>
	<path d="M161.4,251.5l-79-73.5c-3.3-3.3-7.4-5.7-11.9-7l-9.7-95.8C59.3,60,46.6,48.6,31.3,48.6c-16.4,0-29.7,13.3-29.7,29.7v156
		c0,11.2,4.3,21.7,12.2,29.6l59.5,60c4.2,4,6.6,9.5,6.6,15.1v44.2h99.8v-90.6C179.5,277,172.9,262,161.4,251.5z M42,178.2
		c-5.4,5.4-8.4,12.6-8.4,20.3c0,7.7,3,14.9,8.4,20.3l63.6,57.7l14.5-15.9l-63.2-57.3c-1.1-1.2-1.8-3-1.8-4.8c0-1.9,0.8-3.8,2.1-5.1
		c1.2-1.2,2.7-1.8,4.5-2c2.2-0.2,4.3,0.5,5.8,2l79.4,74c7.1,6.5,11.2,15.6,11.3,25.2v69h-56.7v-22.7c0-11.5-4.8-22.6-13.1-30.4
		l-59.2-59.8c-3.8-3.9-6-9-6-14.5v-156c0-4.5,3.7-8.2,8.2-8.2c4.2,0,7.7,3.1,8.1,7.3l9.7,95.6C46.4,174.4,44,176.1,42,178.2z"/>
</g>
</svg>
