<?xml version="1.0" encoding="utf-8"?>
<!-- Generator: Adobe Illustrator 26.0.3, SVG Export Plug-In . SVG Version: 6.00 Build 0)  -->
<svg version="1.1" id="light" xmlns="http://www.w3.org/2000/svg" xmlns:xlink="http://www.w3.org/1999/xlink" x="0px" y="0px"
	 viewBox="0 0 512 512" style="enable-background:new 0 0 512 512;" xml:space="preserve">
<g>
	<path d="M364.5,200.1c13.5,0,26.9-5.1,37.2-15.4c20.5-20.5,20.5-53.9,0-74.4c-20.5-20.5-53.9-20.5-74.4,0
		c-20.5,20.5-20.5,53.9,0,74.4C337.6,194.9,351,200.1,364.5,200.1z M342.2,125.1c6.1-6.1,14.2-9.2,22.3-9.2s16.2,3.1,22.3,9.2
		c12.3,12.3,12.3,32.3,0,44.7c-12.3,12.3-32.3,12.3-44.7,0C329.9,157.5,329.9,137.4,342.2,125.1z"/>
	<path d="M511.9,13.2C511.8,6,506,0.2,498.8,0c-48.8-0.8-101.6,11.1-152.6,34.5c-50.7,23.2-96,56.1-131,95.1
		C146.9,131.2,80,160,31.4,208.6c-3.6,3.6-4.9,9-3.3,13.8c1.6,4.9,5.8,8.4,10.9,9.1l75.6,10.8l-6.3,7.1c-4.7,5.3-4.5,13.5,0.5,18.5
		L244,403.2c2.6,2.5,5.9,3.9,9.5,3.9c3.3,0,6.5-1.2,9-3.4l7.1-6.3l10.8,75.7c0.7,4.8,4.3,8.8,9.5,10.5c1.2,0.4,2.6,0.6,3.9,0.6
		c3.7,0,7.6-1.6,10.2-4.3c48.2-48.1,76.7-114.8,78.3-183.1c39.2-35.2,72.1-80.5,95.4-131C501.2,114.7,513.1,61.9,511.9,13.2z
		 M71.4,208.9c33.7-26.7,75.1-44.3,117.9-50.2l-53.1,59.5L71.4,208.9z M303.1,440.5l-9.3-64.7l59.5-53.1
		C347.5,365.8,330.2,406.2,303.1,440.5z M360.9,279.9c-0.5,0.4-1,0.8-1.5,1.3l-0.4,0.4c-0.3,0.2-0.5,0.5-0.8,0.7l-86.1,76.8
		c-1.1,0.7-2.2,1.7-3,2.7l-14.9,13.3L136.8,257.9l13.3-14.9c1.1-0.9,2-1.9,2.8-3.1l77-86.3l0.7-0.9c0.7-0.6,1.2-1.3,1.7-2
		C296.2,77.9,395,29.6,484.9,27.1C482.4,117.1,433.9,216.1,360.9,279.9z"/>
	<path d="M107.3,336.8C107.3,336.8,107.3,336.8,107.3,336.8c-18.2,0-35.3,7.1-48.1,19.9c-22.5,22.5-52,118.1-57.6,137
		c-1.4,4.8-0.1,9.9,3.4,13.4c2.6,2.5,5.9,3.9,9.5,3.9c1.2,0,2.5-0.2,3.9-0.5c18.9-5.7,114.5-35.1,137-57.6
		c12.8-12.8,19.9-29.9,19.9-48.1c0-18.2-7.1-35.3-19.9-48.1C142.5,343.8,125.5,336.8,107.3,336.8z M136.3,433.7
		c-11,11-60.2,29.7-101.2,43.2c13.4-41,32.1-90.2,43.2-101.2c7.8-7.7,18.1-12,29-12c11,0,21.3,4.3,29,12
		C152.3,391.7,152.3,417.7,136.3,433.7z"/>
</g>
</svg>
