<svg id="Layer_1" enable-background="new 0 0 64 64" height="512" viewBox="0 0 64 64" width="512" xmlns="http://www.w3.org/2000/svg"><g><path d="m62.973 42.571c-.744-1.309-2.015-2.245-3.485-2.568-1.439-.317-2.956-.02-4.17.817l-4.139 2.323c-2.552 1.432-4.814 2.854-6.871 4.321.383-.786.471-1.585.236-2.341-.348-1.121-1.524-2.509-5.153-2.755-7.466-.504-8.875-1.889-9.012-2.045-.813-.932-1.646-1.629-2.545-2.131-10.396-5.807-20.356 2.917-20.775 3.292 0 0-.001.001-.001.001l-5.811 2.975c-.358.183-.627.502-.748.887-.12.384-.081.8.108 1.155l7.869 14.736c.195.366.534.636.935.743.128.034.259.051.389.051.277 0 .552-.077.792-.227l5.866-3.648c.02-.012.036-.029.055-.042.021-.011.045-.019.066-.031.491-.27 1.081-.271 1.584-.003 7.104 3.779 11.482 4.617 13.968 4.617.59 0 1.074-.047 1.462-.113 1.448-.074 14.285-1.078 27.555-13.425l1.086-1.086c1.452-1.456 1.756-3.718.739-5.503zm-52.606 15.839-6.395-11.976 3.35-1.715 6.348 11.638zm49.711-12.426-1.014 1.016c-12.881 11.983-25.566 12.585-25.69 12.59-.077.002-.153.011-.229.025-1.267.24-5.124.312-13.574-4.185-.693-.369-1.448-.553-2.202-.553-.316 0-.633.032-.945.098l-6.449-11.977c2.458-1.797 9.469-6.057 16.396-2.188.593.332 1.165.817 1.747 1.484 1.445 1.658 5.066 2.661 11.07 3.066 1.767.12 2.414.539 2.485.616-.002.09-.175.557-1.008 1.217-1.999 1.649-7.313 3.514-13.055 1.496-.688-.242-1.453.048-1.808.686-.355.639-.198 1.44.371 1.898.235.16.488.274.75.372.975.363 1.989.608 3.025.698 10.803.94 15.866-2.322 15.866-2.322l6.833-4.263 4.204-2.359c.047-.027.094-.056.138-.087.543-.388 1.203-.523 1.854-.379.636.14 1.166.523 1.499 1.081.352.589.221 1.483-.264 1.97z"/><path d="m38.996 24.376c3.465 0 6.284-2.819 6.284-6.284s-2.819-6.284-6.284-6.284-6.283 2.819-6.283 6.284 2.818 6.284 6.283 6.284zm0-9.568c1.811 0 3.284 1.473 3.284 3.284s-1.474 3.284-3.284 3.284-3.283-1.473-3.283-3.284 1.473-3.284 3.283-3.284z"/><path d="m24.461 21.795 1.09.273c.17.577.378 1.143.623 1.694l-.639.871c-.812 1.106-.762 2.613.121 3.664l1.077 1.282c.882 1.049 2.358 1.358 3.588.75l1.008-.5c1.143.75 2.377 1.321 3.685 1.707l.251 1.05c.316 1.335 1.496 2.272 2.87 2.28l1.673.009h.018c1.364 0 2.547-.922 2.878-2.249l.272-1.09c1.221-.36 2.378-.882 3.457-1.561l.953.509c1.209.647 2.693.384 3.609-.639l1.116-1.248c.914-1.022 1.011-2.526.234-3.658l-.64-.932c.291-.625.536-1.271.731-1.934l1.082-.263c1.331-.325 2.263-1.509 2.265-2.882v-1.674c0-1.372-.931-2.557-2.262-2.882l-1.085-.265c-.171-.576-.378-1.141-.621-1.689l.653-.901c.806-1.112.746-2.618-.142-3.662l-1.084-1.276c-.889-1.045-2.365-1.345-3.592-.731l-.998.501c-1.143-.748-2.375-1.317-3.681-1.702l-.264-1.082c-.327-1.332-1.513-2.262-2.883-2.262h-1.674c-1.37 0-2.556.93-2.883 2.264l-.265 1.084c-1.21.357-2.358.875-3.429 1.545l-.986-.52c-1.214-.64-2.696-.37-3.605.658l-1.11 1.254c-.909 1.027-.998 2.531-.215 3.659l.633.912c-.294.63-.542 1.281-.739 1.947l-1.052.25c-1.334.317-2.272 1.498-2.28 2.869l-.01 1.674c-.003 1.372.921 2.563 2.252 2.896zm2.665-4.979c.558-.133.992-.573 1.117-1.132.228-1.021.601-2.002 1.107-2.918.276-.5.245-1.113-.081-1.582l-1.147-1.607 1.07-1.247 1.779.938c.504.267 1.117.223 1.579-.111 1.215-.878 2.571-1.49 4.03-1.816.557-.125.994-.554 1.129-1.108l.445-1.929 1.643-.026.476 1.952c.135.555.573.985 1.131 1.109 1.537.342 2.957.999 4.22 1.951.456.343 1.065.398 1.576.143l1.759-.911 1.083 1.235-1.18 1.627c-.335.462-.378 1.075-.111 1.581.45.854.787 1.768.999 2.716.125.556.554.994 1.107 1.129l1.929.471.025 1.616-1.952.475c-.555.135-.985.573-1.109 1.131-.227 1.015-.596 1.99-1.096 2.898-.274.497-.244 1.105.077 1.573l1.146 1.625-1.075 1.24-1.75-.935c-.508-.27-1.123-.228-1.589.109-1.221.887-2.585 1.503-4.053 1.831-.554.124-.991.55-1.128 1.101l-.456 1.929-1.642.016-.46-1.929c-.133-.558-.573-.991-1.133-1.116-1.539-.342-2.96-1-4.224-1.954-.266-.2-.583-.303-.904-.303-.227 0-.455.051-.666.156l-1.767.904-1.076-1.241 1.172-1.599c.339-.463.385-1.079.117-1.586-.453-.86-.79-1.774-1-2.72-.124-.554-.55-.991-1.101-1.129l-1.93-.457-.016-1.642z"/></g></svg>